<svg width="49" height="46" viewBox="0 0 49 46" fill="none" xmlns="http://www.w3.org/2000/svg">
<path d="M7.20225 41.013L3.35345 0.485886H45.6466L41.794 41.0069L24.4744 45.5145L7.20225 41.013Z" fill="#23D997"/>
<path d="M24.5004 42.0692L38.4956 38.4265L41.7882 3.79932H24.5004V42.0692Z" fill="#23D997"/>
<path d="M24.5004 18.4823H31.5066L31.9905 13.3925H24.5004V8.42195H37.7771L37.65 9.75559L36.3484 23.4528H24.5004V18.4823Z" fill="#1B1B1B"/>
<path d="M24.5317 31.391L24.5084 31.3975L18.6119 29.9029L18.2349 25.9386H12.9207L13.6622 33.7432L24.5076 36.5689L24.5317 36.5625V31.391V31.391Z" fill="#1B1B1B"/>
<path d="M31.0564 23.2426L30.4186 29.8989L24.5134 31.3954V36.5668L35.3676 33.7428L35.4473 32.9029L36.3683 23.2426H31.0564Z" fill="#1B1B1B"/>
<path d="M24.5184 8.42195V13.3925H11.7294L11.6234 12.2755L11.3822 9.75559L11.2555 8.42195H24.5184V8.42195ZM24.5004 18.483V23.4535H18.6782L18.5722 22.3366L18.3306 19.8167L18.2043 18.483H24.5004V18.483Z" fill="#1B1B1B"/>
</svg>
