<svg width="545" height="480" viewBox="0 0 545 480" fill="none" xmlns="http://www.w3.org/2000/svg">
<path d="M498.5 0H46.5004C20.8173 0 0 20.9547 0 46.8052V327.633C0 353.482 20.8173 374.438 46.5004 374.438H227.861V416.779H191.169C173.823 416.779 159.765 430.93 159.765 448.39C159.765 465.847 173.824 480 191.169 480H353.831C371.179 480 385.235 465.847 385.235 448.39C385.235 430.93 371.177 416.779 353.831 416.779H317.139V374.438H498.5C524.183 374.438 545 353.482 545 327.633V46.8052C545 20.9547 524.183 0 498.5 0ZM491.059 320.143H53.9414V54.2929H491.059V320.143Z" fill="#23D997"/>
<path d="M223.339 239.998C220.635 239.998 217.923 239.09 215.685 237.218L169.481 198.619C166.734 196.322 165.147 192.922 165.147 189.331C165.147 185.743 166.734 182.34 169.481 180.047L215.685 141.448C220.779 137.191 228.336 137.899 232.567 143.026C236.797 148.155 236.096 155.765 231 160.019L195.91 189.331L231 218.648C236.096 222.904 236.797 230.512 232.567 235.642C230.194 238.515 226.778 239.998 223.339 239.998Z" fill="#23D997"/>
<path d="M321.664 239.998C318.224 239.998 314.806 238.515 312.433 235.641C308.204 230.51 308.904 222.902 314 218.646L349.088 189.329L314 160.018C308.904 155.761 308.204 148.152 312.433 143.025C316.662 137.897 324.222 137.189 329.316 141.446L375.517 180.045C378.266 182.339 379.853 185.741 379.853 189.329C379.853 192.921 378.266 196.32 375.517 198.617L329.316 237.216C327.077 239.088 324.36 239.998 321.664 239.998Z" fill="#23D997"/>
<path d="M250.482 277.963C249.378 277.963 248.256 277.809 247.142 277.485C240.783 275.632 237.119 268.943 238.962 262.537L283.003 109.416C284.846 103.015 291.492 99.329 297.856 101.179C304.216 103.035 307.879 109.724 306.04 116.13L261.995 269.252C260.472 274.533 255.685 277.963 250.482 277.963Z" fill="#23D997"/>
</svg>
