<svg width="49" height="46" viewBox="0 0 49 46" fill="none" xmlns="http://www.w3.org/2000/svg">
<path d="M7.28759 40.9242L3.45755 0.596924H45.5424L41.7082 40.9181L24.4743 45.4031L7.28759 40.9242Z" fill="#23D997"/>
<path d="M24.5 41.975L38.426 38.3503L41.7024 3.89419H24.5V41.975Z" fill="#23D997"/>
<path d="M24.5 18.851H17.5282L17.0466 13.786H24.5V8.84027H11.2888L11.4151 10.1671L12.7098 23.7971H24.5V18.851ZM24.5 31.6962L24.4766 31.7023L18.6093 30.2145L18.2345 26.2703H12.9452L13.6832 34.0361L24.4759 36.8485L24.5 36.8424V31.6962Z" fill="#1B1B1B"/>
<path d="M24.4816 18.851V23.7971H30.9692L30.3578 30.2116L24.4816 31.7005V36.8464L35.2827 34.0361L35.3619 33.2005L36.5999 20.1793L36.7282 18.851H35.3087H24.4816ZM24.4816 8.84027V13.786H37.2078L37.3135 12.6748L37.5539 10.1671L37.6799 8.84027H24.4816Z" fill="#1B1B1B"/>
</svg>
