<svg width="50" height="48" viewBox="0 0 50 48" fill="none" xmlns="http://www.w3.org/2000/svg">
<path d="M15.0516 11.952H20.9125V27.723C20.9125 34.83 17.3641 37.311 11.6953 37.311C10.3078 37.311 8.53284 37.089 7.37659 36.7185L8.03284 32.1645C9.00469 32.4642 10.0199 32.614 11.0407 32.6085C13.5094 32.6085 15.0516 31.5345 15.0516 27.6855V11.952ZM26.0016 31.1295C27.5438 31.9065 30.0125 32.685 32.5188 32.685C35.2188 32.685 36.6453 31.611 36.6453 29.946C36.6453 28.428 35.411 27.5025 32.2875 26.466C27.9688 24.9855 25.1157 22.6905 25.1157 19.0245C25.1157 14.7675 28.8563 11.547 34.9485 11.547C37.9172 11.547 40.0391 12.102 41.5813 12.8055L40.2703 17.322C38.5898 16.5335 36.7424 16.128 34.8719 16.137C32.3266 16.137 31.0922 17.2845 31.0922 18.543C31.0922 20.1345 32.5188 20.838 35.9125 22.0965C40.5016 23.7255 42.6219 26.0205 42.6219 29.574C42.6219 33.7575 39.3063 37.311 32.1719 37.311C29.2032 37.311 26.2719 36.534 24.8063 35.7555L26.0016 31.128V31.1295Z" fill="#23D997"/>
</svg>
