<svg width="21" height="21" viewBox="0 0 21 21" fill="none" xmlns="http://www.w3.org/2000/svg">
<path d="M16.625 0H4.37499C1.95913 0 0 1.95913 0 4.37499V16.625C0 19.0409 1.95913 21 4.37499 21H16.625C19.0417 21 21 19.0409 21 16.625V4.37499C21 1.95913 19.0417 0 16.625 0ZM6.99999 16.625H4.37499V6.99999H6.99999V16.625ZM5.68749 5.8905C4.84224 5.8905 4.15626 5.19924 4.15626 4.347C4.15626 3.49475 4.84224 2.8035 5.68749 2.8035C6.53274 2.8035 7.21875 3.49475 7.21875 4.347C7.21875 5.19924 6.53364 5.8905 5.68749 5.8905ZM17.5 16.625H14.875V11.7215C14.875 8.77449 11.375 8.99763 11.375 11.7215V16.625H8.75001V6.99999H11.375V8.54439C12.5965 6.28164 17.5 6.11451 17.5 10.7109V16.625Z" fill="white"/>
</svg>
