<svg width="50" height="48" viewBox="0 0 50 48" fill="none" xmlns="http://www.w3.org/2000/svg">
<path d="M25 28.275C27.4594 28.275 29.4531 26.361 29.4531 24C29.4531 21.639 27.4594 19.725 25 19.725C22.5406 19.725 20.5469 21.639 20.5469 24C20.5469 26.361 22.5406 28.275 25 28.275Z" fill="#23D997"/>
<path d="M41.9141 16.95C41.0547 16.65 40.1563 16.35 39.2188 16.0875C39.4531 15.1875 39.6484 14.2875 39.8047 13.425C40.625 8.475 39.7266 4.9875 37.2266 3.6375C36.4844 3.225 35.6641 3.0375 34.7266 3.0375C31.9922 3.0375 28.5156 4.9875 25 8.25C21.4844 4.9875 18.0078 3.0375 15.2734 3.0375C14.3359 3.0375 13.5156 3.225 12.7734 3.6375C10.2734 5.025 9.375 8.5125 10.1953 13.425C10.3516 14.2875 10.5469 15.1875 10.7813 16.0875C9.84375 16.35 8.94531 16.6125 8.08594 16.95C3.20313 18.75 0.546875 21.225 0.546875 24C0.546875 26.775 3.24219 29.25 8.08594 31.05C8.94531 31.35 9.84375 31.65 10.7813 31.9125C10.5469 32.8125 10.3516 33.7125 10.1953 34.575C9.375 39.525 10.2734 43.0125 12.7734 44.3625C13.5156 44.775 14.3359 44.9625 15.2734 44.9625C18.0469 44.9625 21.5234 43.0125 25 39.75C28.5156 43.0125 31.9922 44.9625 34.7266 44.9625C35.6641 44.9625 36.4844 44.775 37.2266 44.3625C39.7266 42.975 40.625 39.4875 39.8047 34.575C39.6484 33.7125 39.4531 32.8125 39.2188 31.9125C40.1563 31.65 41.0547 31.3875 41.9141 31.05C46.7969 29.25 49.4531 26.775 49.4531 24C49.4531 21.225 46.7969 18.75 41.9141 16.95ZM36.1328 5.5125C37.7344 6.4125 38.2813 9.1875 37.6172 13.125C37.5 13.9125 37.3047 14.7375 37.0703 15.6C35.0391 15.15 32.8906 14.85 30.625 14.6625C29.2969 12.8625 27.9297 11.25 26.5625 9.7875C29.4531 7.05 32.3828 5.175 34.7656 5.175C35.2734 5.175 35.7422 5.2875 36.1328 5.5125ZM31.7578 27.75C31.0547 28.95 30.2344 30.15 29.375 31.35C27.9297 31.4625 26.4844 31.5 25 31.5C23.4766 31.5 22.0312 31.4625 20.625 31.35C19.7656 30.15 18.9844 28.95 18.2812 27.75C17.5391 26.5125 16.8359 25.2375 16.2109 24C16.8359 22.7625 17.5391 21.4875 18.2812 20.25C18.9844 19.05 19.8047 17.85 20.6641 16.65C22.1094 16.5375 23.5547 16.5 25.0391 16.5C26.5625 16.5 28.0078 16.5375 29.4141 16.65C30.2734 17.85 31.0547 19.05 31.7578 20.25C32.5 21.4875 33.2031 22.7625 33.8281 24C33.1641 25.2375 32.5 26.475 31.7578 27.75ZM35 26.5125C35.5859 27.825 36.0547 29.1 36.4844 30.375C35.1563 30.675 33.75 30.9 32.2656 31.0875C32.7344 30.375 33.2422 29.625 33.6719 28.8375C34.1406 28.05 34.5703 27.2625 35 26.5125ZM25 36.675C24.0625 35.7 23.1641 34.65 22.3047 33.5625C23.2031 33.6 24.1016 33.6375 25 33.6375C25.8984 33.6375 26.7969 33.6 27.6953 33.5625C26.8359 34.65 25.9375 35.7 25 36.675ZM17.7344 31.05C16.25 30.8625 14.8438 30.6375 13.5156 30.3375C13.9453 29.1 14.4141 27.7875 15 26.475C15.4297 27.225 15.8594 28.0125 16.3281 28.7625C16.7969 29.5875 17.2656 30.3 17.7344 31.05ZM15 21.4875C14.4141 20.175 13.9453 18.9 13.5156 17.625C14.8438 17.325 16.25 17.1 17.7344 16.9125C17.2656 17.625 16.7578 18.375 16.3281 19.1625C15.8594 19.95 15.4297 20.7375 15 21.4875ZM25 11.325C25.9375 12.3 26.8359 13.35 27.6953 14.4375C26.7969 14.4 25.8984 14.3625 25 14.3625C24.1016 14.3625 23.2031 14.4 22.3047 14.4375C23.1641 13.35 24.0625 12.3 25 11.325ZM33.6719 19.2L32.2656 16.95C33.75 17.1375 35.1563 17.3625 36.4844 17.6625C36.0547 18.9 35.5859 20.2125 35 21.525C34.5703 20.7375 34.1406 19.95 33.6719 19.2ZM12.3828 13.125C11.7188 9.1875 12.2656 6.4125 13.8672 5.5125C14.2578 5.2875 14.7266 5.175 15.2344 5.175C17.5781 5.175 20.5078 7.0125 23.4375 9.7875C22.0703 11.2125 20.7031 12.8625 19.375 14.6625C17.1094 14.85 14.9609 15.1875 12.9297 15.6C12.6953 14.7375 12.5391 13.9125 12.3828 13.125ZM2.73438 24C2.73438 22.2375 4.96094 20.3625 8.86719 18.975C9.64844 18.675 10.5078 18.4125 11.3672 18.1875C11.9922 20.0625 12.7734 22.05 13.7109 24.0375C12.7734 26.025 11.9531 27.975 11.3672 29.85C5.97656 28.35 2.73438 26.1 2.73438 24ZM13.8672 42.4875C12.2656 41.5875 11.7188 38.8125 12.3828 34.875C12.5 34.0875 12.6953 33.2625 12.9297 32.4C14.9609 32.85 17.1094 33.15 19.375 33.3375C20.7031 35.1375 22.0703 36.75 23.4375 38.2125C20.5469 40.95 17.6172 42.825 15.2344 42.825C14.7266 42.825 14.2578 42.7125 13.8672 42.4875ZM37.6172 34.875C38.2813 38.8125 37.7344 41.5875 36.1328 42.4875C35.7422 42.7125 35.2734 42.825 34.7656 42.825C32.4219 42.825 29.4922 40.9875 26.5625 38.2125C27.9297 36.7875 29.2969 35.1375 30.625 33.3375C32.8906 33.15 35.0391 32.8125 37.0703 32.4C37.3047 33.2625 37.4609 34.0875 37.6172 34.875ZM41.1328 29.025C40.3516 29.325 39.4922 29.5875 38.6328 29.8125C38.0078 27.9375 37.2266 25.95 36.2891 23.9625C37.2266 21.975 38.0469 20.025 38.6328 18.15C44.0234 19.65 47.2656 21.9 47.2656 24C47.2656 25.7625 45 27.6375 41.1328 29.025Z" fill="#23D997"/>
</svg>
